<mxfile host="app.diagrams.net" modified="2023-10-03T12:25:26.488Z" agent="Mozilla/5.0 (Windows NT 10.0; Win64; x64) AppleWebKit/537.36 (KHTML, like Gecko) Chrome/117.0.0.0 Safari/537.36 Edg/117.0.2045.47" etag="Z2yMry73Ey7GSMYb500f" version="21.8.1" type="github">
  <diagram name="第 1 页" id="guo7SCNm_dT3yrS8O24B">
    <mxGraphModel dx="922" dy="539" grid="1" gridSize="10" guides="1" tooltips="1" connect="1" arrows="1" fold="1" page="1" pageScale="1" pageWidth="827" pageHeight="1169" math="0" shadow="0">
      <root>
        <mxCell id="0" />
        <mxCell id="1" parent="0" />
        <mxCell id="QxyLshWuiCr4kXAzftjN-1" value="&lt;span style=&quot;font-size: 14px;&quot;&gt;x[:,0]→&lt;br&gt;hor_dist_net&lt;br&gt;&lt;/span&gt;" style="text;html=1;strokeColor=none;fillColor=none;align=center;verticalAlign=middle;whiteSpace=wrap;rounded=0;" vertex="1" parent="1">
          <mxGeometry x="119" y="555" width="71" height="30" as="geometry" />
        </mxCell>
        <mxCell id="QxyLshWuiCr4kXAzftjN-2" value="&lt;font style=&quot;font-size: 18px;&quot;&gt;x&lt;/font&gt;" style="rounded=1;whiteSpace=wrap;html=1;fillColor=#dae8fc;strokeColor=#6c8ebf;" vertex="1" parent="1">
          <mxGeometry x="60" y="660" width="40" height="40" as="geometry" />
        </mxCell>
        <mxCell id="QxyLshWuiCr4kXAzftjN-3" style="edgeStyle=orthogonalEdgeStyle;rounded=0;orthogonalLoop=1;jettySize=auto;html=1;exitX=1;exitY=0.5;exitDx=0;exitDy=0;entryX=0;entryY=0.5;entryDx=0;entryDy=0;" edge="1" parent="1" source="QxyLshWuiCr4kXAzftjN-4" target="QxyLshWuiCr4kXAzftjN-22">
          <mxGeometry relative="1" as="geometry">
            <Array as="points">
              <mxPoint x="540" y="500" />
              <mxPoint x="540" y="680" />
            </Array>
          </mxGeometry>
        </mxCell>
        <mxCell id="QxyLshWuiCr4kXAzftjN-4" value="&lt;font style=&quot;font-size: 18px;&quot;&gt;hor_x&lt;/font&gt;" style="rounded=1;whiteSpace=wrap;html=1;fillColor=#dae8fc;strokeColor=#6c8ebf;" vertex="1" parent="1">
          <mxGeometry x="280" y="480" width="80" height="40" as="geometry" />
        </mxCell>
        <mxCell id="QxyLshWuiCr4kXAzftjN-5" style="edgeStyle=orthogonalEdgeStyle;rounded=0;orthogonalLoop=1;jettySize=auto;html=1;exitX=0.5;exitY=1;exitDx=0;exitDy=0;entryX=0;entryY=0.5;entryDx=0;entryDy=0;" edge="1" parent="1" source="QxyLshWuiCr4kXAzftjN-6" target="QxyLshWuiCr4kXAzftjN-15">
          <mxGeometry relative="1" as="geometry">
            <mxPoint x="406.5" y="680" as="targetPoint" />
            <Array as="points">
              <mxPoint x="340" y="680" />
            </Array>
          </mxGeometry>
        </mxCell>
        <mxCell id="QxyLshWuiCr4kXAzftjN-6" value="&lt;font style=&quot;font-size: 18px;&quot;&gt;ver_x_down&lt;/font&gt;" style="rounded=1;whiteSpace=wrap;html=1;fillColor=#dae8fc;strokeColor=#6c8ebf;" vertex="1" parent="1">
          <mxGeometry x="280" y="600" width="120" height="40" as="geometry" />
        </mxCell>
        <mxCell id="QxyLshWuiCr4kXAzftjN-7" value="" style="endArrow=classic;html=1;rounded=0;exitX=1;exitY=0.5;exitDx=0;exitDy=0;entryX=0;entryY=0.5;entryDx=0;entryDy=0;" edge="1" parent="1" source="QxyLshWuiCr4kXAzftjN-2" target="QxyLshWuiCr4kXAzftjN-4">
          <mxGeometry width="50" height="50" relative="1" as="geometry">
            <mxPoint x="140" y="610" as="sourcePoint" />
            <mxPoint x="190" y="560" as="targetPoint" />
          </mxGeometry>
        </mxCell>
        <mxCell id="QxyLshWuiCr4kXAzftjN-8" style="edgeStyle=orthogonalEdgeStyle;rounded=0;orthogonalLoop=1;jettySize=auto;html=1;exitX=0.5;exitY=0;exitDx=0;exitDy=0;entryX=0;entryY=0.5;entryDx=0;entryDy=0;" edge="1" parent="1" source="QxyLshWuiCr4kXAzftjN-9" target="QxyLshWuiCr4kXAzftjN-15">
          <mxGeometry relative="1" as="geometry" />
        </mxCell>
        <mxCell id="QxyLshWuiCr4kXAzftjN-9" value="&lt;font style=&quot;font-size: 18px;&quot;&gt;ver_x_top&lt;/font&gt;" style="rounded=1;whiteSpace=wrap;html=1;fillColor=#dae8fc;strokeColor=#6c8ebf;" vertex="1" parent="1">
          <mxGeometry x="280" y="720" width="120" height="40" as="geometry" />
        </mxCell>
        <mxCell id="QxyLshWuiCr4kXAzftjN-10" value="&lt;span style=&quot;font-size: 14px;&quot;&gt;x[:,1]→&lt;br&gt;ver_dist_transform&lt;br&gt;&lt;/span&gt;" style="text;html=1;strokeColor=none;fillColor=none;align=center;verticalAlign=middle;whiteSpace=wrap;rounded=0;" vertex="1" parent="1">
          <mxGeometry x="174.5" y="610" width="71" height="30" as="geometry" />
        </mxCell>
        <mxCell id="QxyLshWuiCr4kXAzftjN-11" value="" style="endArrow=classic;html=1;rounded=0;exitX=1;exitY=0.5;exitDx=0;exitDy=0;entryX=0;entryY=0.5;entryDx=0;entryDy=0;" edge="1" parent="1" source="QxyLshWuiCr4kXAzftjN-2" target="QxyLshWuiCr4kXAzftjN-9">
          <mxGeometry width="50" height="50" relative="1" as="geometry">
            <mxPoint x="160" y="710" as="sourcePoint" />
            <mxPoint x="210" y="660" as="targetPoint" />
          </mxGeometry>
        </mxCell>
        <mxCell id="QxyLshWuiCr4kXAzftjN-12" value="&lt;span style=&quot;font-size: 14px;&quot;&gt;x[:,2]→&lt;br&gt;ver_dist_transform&lt;br&gt;&lt;/span&gt;" style="text;html=1;strokeColor=none;fillColor=none;align=center;verticalAlign=middle;whiteSpace=wrap;rounded=0;" vertex="1" parent="1">
          <mxGeometry x="174.5" y="680" width="71" height="30" as="geometry" />
        </mxCell>
        <mxCell id="QxyLshWuiCr4kXAzftjN-13" value="&lt;span style=&quot;font-size: 14px;&quot;&gt;concat&lt;br&gt;&lt;/span&gt;" style="text;html=1;strokeColor=none;fillColor=none;align=center;verticalAlign=middle;whiteSpace=wrap;rounded=0;" vertex="1" parent="1">
          <mxGeometry x="280" y="660" width="71" height="30" as="geometry" />
        </mxCell>
        <mxCell id="QxyLshWuiCr4kXAzftjN-14" style="edgeStyle=orthogonalEdgeStyle;rounded=0;orthogonalLoop=1;jettySize=auto;html=1;exitX=1;exitY=0.5;exitDx=0;exitDy=0;entryX=0;entryY=0.5;entryDx=0;entryDy=0;" edge="1" parent="1" source="QxyLshWuiCr4kXAzftjN-15" target="QxyLshWuiCr4kXAzftjN-22">
          <mxGeometry relative="1" as="geometry" />
        </mxCell>
        <mxCell id="QxyLshWuiCr4kXAzftjN-15" value="&lt;font style=&quot;font-size: 18px;&quot;&gt;ver_x&lt;/font&gt;" style="rounded=1;whiteSpace=wrap;html=1;fillColor=#dae8fc;strokeColor=#6c8ebf;" vertex="1" parent="1">
          <mxGeometry x="440" y="660" width="80" height="40" as="geometry" />
        </mxCell>
        <mxCell id="QxyLshWuiCr4kXAzftjN-16" value="&lt;span style=&quot;font-size: 14px;&quot;&gt;ver_dist_net&lt;br&gt;&lt;/span&gt;" style="text;html=1;strokeColor=none;fillColor=none;align=center;verticalAlign=middle;whiteSpace=wrap;rounded=0;" vertex="1" parent="1">
          <mxGeometry x="353" y="656" width="71" height="30" as="geometry" />
        </mxCell>
        <mxCell id="QxyLshWuiCr4kXAzftjN-17" value="" style="endArrow=classic;html=1;rounded=0;exitX=1;exitY=0.5;exitDx=0;exitDy=0;entryX=0;entryY=0.5;entryDx=0;entryDy=0;" edge="1" parent="1" source="QxyLshWuiCr4kXAzftjN-2" target="QxyLshWuiCr4kXAzftjN-6">
          <mxGeometry width="50" height="50" relative="1" as="geometry">
            <mxPoint x="160" y="810" as="sourcePoint" />
            <mxPoint x="210" y="760" as="targetPoint" />
          </mxGeometry>
        </mxCell>
        <mxCell id="QxyLshWuiCr4kXAzftjN-18" style="edgeStyle=orthogonalEdgeStyle;rounded=0;orthogonalLoop=1;jettySize=auto;html=1;exitX=1;exitY=0.5;exitDx=0;exitDy=0;entryX=0;entryY=0.5;entryDx=0;entryDy=0;" edge="1" parent="1" source="QxyLshWuiCr4kXAzftjN-19" target="QxyLshWuiCr4kXAzftjN-22">
          <mxGeometry relative="1" as="geometry">
            <Array as="points">
              <mxPoint x="540" y="860" />
              <mxPoint x="540" y="680" />
            </Array>
          </mxGeometry>
        </mxCell>
        <mxCell id="QxyLshWuiCr4kXAzftjN-19" value="&lt;font style=&quot;font-size: 18px;&quot;&gt;vel_x&lt;/font&gt;" style="rounded=1;whiteSpace=wrap;html=1;fillColor=#dae8fc;strokeColor=#6c8ebf;" vertex="1" parent="1">
          <mxGeometry x="280" y="840" width="80" height="40" as="geometry" />
        </mxCell>
        <mxCell id="QxyLshWuiCr4kXAzftjN-20" value="" style="endArrow=classic;html=1;rounded=0;exitX=1;exitY=0.5;exitDx=0;exitDy=0;entryX=0;entryY=0.5;entryDx=0;entryDy=0;" edge="1" parent="1" source="QxyLshWuiCr4kXAzftjN-2" target="QxyLshWuiCr4kXAzftjN-19">
          <mxGeometry width="50" height="50" relative="1" as="geometry">
            <mxPoint x="150" y="810" as="sourcePoint" />
            <mxPoint x="200" y="760" as="targetPoint" />
          </mxGeometry>
        </mxCell>
        <mxCell id="QxyLshWuiCr4kXAzftjN-21" value="&lt;span style=&quot;font-size: 14px;&quot;&gt;x[:,3]→&lt;br&gt;vel_net&lt;br&gt;&lt;/span&gt;" style="text;html=1;strokeColor=none;fillColor=none;align=center;verticalAlign=middle;whiteSpace=wrap;rounded=0;" vertex="1" parent="1">
          <mxGeometry x="119" y="780" width="71" height="30" as="geometry" />
        </mxCell>
        <mxCell id="QxyLshWuiCr4kXAzftjN-22" value="&lt;font style=&quot;font-size: 18px;&quot;&gt;x&lt;/font&gt;" style="rounded=1;whiteSpace=wrap;html=1;fillColor=#dae8fc;strokeColor=#6c8ebf;" vertex="1" parent="1">
          <mxGeometry x="620" y="660" width="40" height="40" as="geometry" />
        </mxCell>
        <mxCell id="QxyLshWuiCr4kXAzftjN-23" value="&lt;span style=&quot;font-size: 14px;&quot;&gt;concat&lt;br&gt;att &amp;amp; out&lt;br&gt;&lt;/span&gt;" style="text;html=1;strokeColor=none;fillColor=none;align=center;verticalAlign=middle;whiteSpace=wrap;rounded=0;" vertex="1" parent="1">
          <mxGeometry x="542" y="647" width="71" height="30" as="geometry" />
        </mxCell>
        <mxCell id="QxyLshWuiCr4kXAzftjN-24" value="&lt;span style=&quot;font-size: 14px;&quot;&gt;[1,2]&lt;br&gt;&lt;/span&gt;" style="text;html=1;strokeColor=none;fillColor=none;align=center;verticalAlign=middle;whiteSpace=wrap;rounded=0;" vertex="1" parent="1">
          <mxGeometry x="604.5" y="630" width="71" height="30" as="geometry" />
        </mxCell>
      </root>
    </mxGraphModel>
  </diagram>
</mxfile>
